<?xml version="1.0" encoding="UTF-8"?>
<svg id="Camada_1" xmlns="http://www.w3.org/2000/svg" version="1.1" viewBox="0 0 1920 1080">
  <!-- Generator: Adobe Illustrator 30.1.0, SVG Export Plug-In . SVG Version: 2.1.1 Build 136)  -->
  <defs>
    <style>
      .st0 {
        fill: #fff;
      }
    </style>
  </defs>
  <path class="st0" d="M271.46,1005.71c-.53-127.31-1.08-254.95-1.63-382.93v-1.63c1.72-1.08,3.44-1.69,6.81-1.68l381.95.23-387.13,386.01Z"/>
  <polygon class="st0" points="1649.13 619.49 1649.01 1007.98 1260.49 619.62 1649.13 619.49"/>
  <path class="st0" d="M1649.15,72.02c1.18,129.06,1.33,258.65.45,388.76l-2.03.64-384.33.08c-2.83.08-4.53-1.8-5.29-4.38l-.45-199.12c-96.2,192.2-192.14,385.1-287.81,578.68-6.97,10.97-11.14,16.86-19.11,2.53-96.17-194.49-192.54-388.22-289.09-581.2l-.47,198.24-2.5,4.43c-128.17.98-256.52,1.24-385.05.78l-2.02-3.26c-1.43-125.99-1.43-259.59,0-386.19h1377.69Z"/>
</svg>